<mxfile host="app.diagrams.net" agent="Mozilla/5.0 (X11; Linux x86_64) AppleWebKit/537.36 (KHTML, like Gecko) Chrome/129.0.0.0 Safari/537.36" version="25.0.3">
  <diagram name="Page-1" id="fNQSDi-6R5eK7XQsokTD">
    <mxGraphModel dx="1615" dy="838" grid="1" gridSize="10" guides="1" tooltips="1" connect="1" arrows="1" fold="1" page="1" pageScale="1" pageWidth="850" pageHeight="1100" math="0" shadow="0">
      <root>
        <mxCell id="0" />
        <mxCell id="1" parent="0" />
        <mxCell id="G0EZGJF396JuAqTIfjui-109" value="" style="group" vertex="1" connectable="0" parent="1">
          <mxGeometry x="173" y="1011" width="460" height="30" as="geometry" />
        </mxCell>
        <mxCell id="G0EZGJF396JuAqTIfjui-95" value="" style="group" vertex="1" connectable="0" parent="G0EZGJF396JuAqTIfjui-109">
          <mxGeometry width="348.1081081081082" height="30" as="geometry" />
        </mxCell>
        <mxCell id="G0EZGJF396JuAqTIfjui-81" value="" style="group" vertex="1" connectable="0" parent="G0EZGJF396JuAqTIfjui-95">
          <mxGeometry width="236.21621621621622" height="30" as="geometry" />
        </mxCell>
        <mxCell id="G0EZGJF396JuAqTIfjui-42" value="" style="shape=table;startSize=0;container=1;collapsible=0;childLayout=tableLayout;fontSize=16;" vertex="1" parent="G0EZGJF396JuAqTIfjui-81">
          <mxGeometry width="124.32432432432437" height="30" as="geometry" />
        </mxCell>
        <mxCell id="G0EZGJF396JuAqTIfjui-43" value="" style="shape=tableRow;horizontal=0;startSize=0;swimlaneHead=0;swimlaneBody=0;strokeColor=inherit;top=0;left=0;bottom=0;right=0;collapsible=0;dropTarget=0;fillColor=none;points=[[0,0.5],[1,0.5]];portConstraint=eastwest;fontSize=16;" vertex="1" parent="G0EZGJF396JuAqTIfjui-42">
          <mxGeometry width="124.32432432432437" height="30" as="geometry" />
        </mxCell>
        <mxCell id="G0EZGJF396JuAqTIfjui-44" value="D8" style="shape=partialRectangle;html=1;whiteSpace=wrap;connectable=0;strokeColor=inherit;overflow=hidden;fillColor=none;top=0;left=0;bottom=0;right=0;pointerEvents=1;fontSize=16;" vertex="1" parent="G0EZGJF396JuAqTIfjui-43">
          <mxGeometry width="42" height="30" as="geometry">
            <mxRectangle width="42" height="30" as="alternateBounds" />
          </mxGeometry>
        </mxCell>
        <mxCell id="G0EZGJF396JuAqTIfjui-45" value="D7" style="shape=partialRectangle;html=1;whiteSpace=wrap;connectable=0;strokeColor=inherit;overflow=hidden;fillColor=none;top=0;left=0;bottom=0;right=0;pointerEvents=1;fontSize=16;" vertex="1" parent="G0EZGJF396JuAqTIfjui-43">
          <mxGeometry x="42" width="40" height="30" as="geometry">
            <mxRectangle width="40" height="30" as="alternateBounds" />
          </mxGeometry>
        </mxCell>
        <mxCell id="G0EZGJF396JuAqTIfjui-46" value="D6" style="shape=partialRectangle;html=1;whiteSpace=wrap;connectable=0;strokeColor=inherit;overflow=hidden;fillColor=none;top=0;left=0;bottom=0;right=0;pointerEvents=1;fontSize=16;" vertex="1" parent="G0EZGJF396JuAqTIfjui-43">
          <mxGeometry x="82" width="42" height="30" as="geometry">
            <mxRectangle width="42" height="30" as="alternateBounds" />
          </mxGeometry>
        </mxCell>
        <mxCell id="G0EZGJF396JuAqTIfjui-68" value="" style="shape=table;startSize=0;container=1;collapsible=0;childLayout=tableLayout;fontSize=16;" vertex="1" parent="G0EZGJF396JuAqTIfjui-81">
          <mxGeometry x="124.32432432432437" width="111.8918918918919" height="30" as="geometry" />
        </mxCell>
        <mxCell id="G0EZGJF396JuAqTIfjui-69" value="" style="shape=tableRow;horizontal=0;startSize=0;swimlaneHead=0;swimlaneBody=0;strokeColor=inherit;top=0;left=0;bottom=0;right=0;collapsible=0;dropTarget=0;fillColor=none;points=[[0,0.5],[1,0.5]];portConstraint=eastwest;fontSize=16;" vertex="1" parent="G0EZGJF396JuAqTIfjui-68">
          <mxGeometry width="111.8918918918919" height="30" as="geometry" />
        </mxCell>
        <mxCell id="G0EZGJF396JuAqTIfjui-70" value="D5" style="shape=partialRectangle;html=1;whiteSpace=wrap;connectable=0;strokeColor=inherit;overflow=hidden;fillColor=none;top=0;left=0;bottom=0;right=0;pointerEvents=1;fontSize=16;" vertex="1" parent="G0EZGJF396JuAqTIfjui-69">
          <mxGeometry width="37" height="30" as="geometry">
            <mxRectangle width="37" height="30" as="alternateBounds" />
          </mxGeometry>
        </mxCell>
        <mxCell id="G0EZGJF396JuAqTIfjui-71" value="P8" style="shape=partialRectangle;html=1;whiteSpace=wrap;connectable=0;strokeColor=inherit;overflow=hidden;fillColor=none;top=0;left=0;bottom=0;right=0;pointerEvents=1;fontSize=16;" vertex="1" parent="G0EZGJF396JuAqTIfjui-69">
          <mxGeometry x="37" width="37" height="30" as="geometry">
            <mxRectangle width="37" height="30" as="alternateBounds" />
          </mxGeometry>
        </mxCell>
        <mxCell id="G0EZGJF396JuAqTIfjui-72" value="D4" style="shape=partialRectangle;html=1;whiteSpace=wrap;connectable=0;strokeColor=inherit;overflow=hidden;fillColor=none;top=0;left=0;bottom=0;right=0;pointerEvents=1;fontSize=16;" vertex="1" parent="G0EZGJF396JuAqTIfjui-69">
          <mxGeometry x="74" width="38" height="30" as="geometry">
            <mxRectangle width="38" height="30" as="alternateBounds" />
          </mxGeometry>
        </mxCell>
        <mxCell id="G0EZGJF396JuAqTIfjui-82" value="" style="shape=table;startSize=0;container=1;collapsible=0;childLayout=tableLayout;fontSize=16;" vertex="1" parent="G0EZGJF396JuAqTIfjui-95">
          <mxGeometry x="236.21621621621622" width="111.89189189189194" height="30" as="geometry" />
        </mxCell>
        <mxCell id="G0EZGJF396JuAqTIfjui-83" value="" style="shape=tableRow;horizontal=0;startSize=0;swimlaneHead=0;swimlaneBody=0;strokeColor=inherit;top=0;left=0;bottom=0;right=0;collapsible=0;dropTarget=0;fillColor=none;points=[[0,0.5],[1,0.5]];portConstraint=eastwest;fontSize=16;" vertex="1" parent="G0EZGJF396JuAqTIfjui-82">
          <mxGeometry width="111.89189189189194" height="30" as="geometry" />
        </mxCell>
        <mxCell id="G0EZGJF396JuAqTIfjui-84" value="D3" style="shape=partialRectangle;html=1;whiteSpace=wrap;connectable=0;strokeColor=inherit;overflow=hidden;fillColor=none;top=0;left=0;bottom=0;right=0;pointerEvents=1;fontSize=16;" vertex="1" parent="G0EZGJF396JuAqTIfjui-83">
          <mxGeometry width="37" height="30" as="geometry">
            <mxRectangle width="37" height="30" as="alternateBounds" />
          </mxGeometry>
        </mxCell>
        <mxCell id="G0EZGJF396JuAqTIfjui-85" value="D2" style="shape=partialRectangle;html=1;whiteSpace=wrap;connectable=0;strokeColor=inherit;overflow=hidden;fillColor=none;top=0;left=0;bottom=0;right=0;pointerEvents=1;fontSize=16;" vertex="1" parent="G0EZGJF396JuAqTIfjui-83">
          <mxGeometry x="37" width="37" height="30" as="geometry">
            <mxRectangle width="37" height="30" as="alternateBounds" />
          </mxGeometry>
        </mxCell>
        <mxCell id="G0EZGJF396JuAqTIfjui-86" value="P4" style="shape=partialRectangle;html=1;whiteSpace=wrap;connectable=0;strokeColor=inherit;overflow=hidden;fillColor=none;top=0;left=0;bottom=0;right=0;pointerEvents=1;fontSize=16;" vertex="1" parent="G0EZGJF396JuAqTIfjui-83">
          <mxGeometry x="74" width="38" height="30" as="geometry">
            <mxRectangle width="38" height="30" as="alternateBounds" />
          </mxGeometry>
        </mxCell>
        <mxCell id="G0EZGJF396JuAqTIfjui-96" value="" style="shape=table;startSize=0;container=1;collapsible=0;childLayout=tableLayout;fontSize=16;" vertex="1" parent="G0EZGJF396JuAqTIfjui-109">
          <mxGeometry x="348.1081081081082" width="111.8918918918919" height="30" as="geometry" />
        </mxCell>
        <mxCell id="G0EZGJF396JuAqTIfjui-97" value="" style="shape=tableRow;horizontal=0;startSize=0;swimlaneHead=0;swimlaneBody=0;strokeColor=inherit;top=0;left=0;bottom=0;right=0;collapsible=0;dropTarget=0;fillColor=none;points=[[0,0.5],[1,0.5]];portConstraint=eastwest;fontSize=16;" vertex="1" parent="G0EZGJF396JuAqTIfjui-96">
          <mxGeometry width="111.8918918918919" height="30" as="geometry" />
        </mxCell>
        <mxCell id="G0EZGJF396JuAqTIfjui-98" value="D1" style="shape=partialRectangle;html=1;whiteSpace=wrap;connectable=0;strokeColor=inherit;overflow=hidden;fillColor=none;top=0;left=0;bottom=0;right=0;pointerEvents=1;fontSize=16;" vertex="1" parent="G0EZGJF396JuAqTIfjui-97">
          <mxGeometry width="37" height="30" as="geometry">
            <mxRectangle width="37" height="30" as="alternateBounds" />
          </mxGeometry>
        </mxCell>
        <mxCell id="G0EZGJF396JuAqTIfjui-99" value="P2" style="shape=partialRectangle;html=1;whiteSpace=wrap;connectable=0;strokeColor=inherit;overflow=hidden;fillColor=none;top=0;left=0;bottom=0;right=0;pointerEvents=1;fontSize=16;" vertex="1" parent="G0EZGJF396JuAqTIfjui-97">
          <mxGeometry x="37" width="37" height="30" as="geometry">
            <mxRectangle width="37" height="30" as="alternateBounds" />
          </mxGeometry>
        </mxCell>
        <mxCell id="G0EZGJF396JuAqTIfjui-100" value="P1" style="shape=partialRectangle;html=1;whiteSpace=wrap;connectable=0;strokeColor=inherit;overflow=hidden;fillColor=none;top=0;left=0;bottom=0;right=0;pointerEvents=1;fontSize=16;" vertex="1" parent="G0EZGJF396JuAqTIfjui-97">
          <mxGeometry x="74" width="38" height="30" as="geometry">
            <mxRectangle width="38" height="30" as="alternateBounds" />
          </mxGeometry>
        </mxCell>
        <mxCell id="G0EZGJF396JuAqTIfjui-124" value="" style="group" vertex="1" connectable="0" parent="1">
          <mxGeometry x="368" y="191" width="80" height="140" as="geometry" />
        </mxCell>
        <mxCell id="G0EZGJF396JuAqTIfjui-114" value="" style="group" vertex="1" connectable="0" parent="G0EZGJF396JuAqTIfjui-124">
          <mxGeometry width="80" height="110" as="geometry" />
        </mxCell>
        <mxCell id="G0EZGJF396JuAqTIfjui-112" value="F2G" style="whiteSpace=wrap;html=1;aspect=fixed;" vertex="1" parent="G0EZGJF396JuAqTIfjui-114">
          <mxGeometry y="30" width="80" height="80" as="geometry" />
        </mxCell>
        <mxCell id="G0EZGJF396JuAqTIfjui-117" value="" style="endArrow=none;html=1;rounded=0;" edge="1" parent="G0EZGJF396JuAqTIfjui-114">
          <mxGeometry width="50" height="50" relative="1" as="geometry">
            <mxPoint x="65" y="30" as="sourcePoint" />
            <mxPoint x="65" as="targetPoint" />
          </mxGeometry>
        </mxCell>
        <mxCell id="G0EZGJF396JuAqTIfjui-125" value="D1" style="edgeLabel;html=1;align=center;verticalAlign=middle;resizable=0;points=[];" vertex="1" connectable="0" parent="G0EZGJF396JuAqTIfjui-117">
          <mxGeometry x="-0.1471" y="-1" relative="1" as="geometry">
            <mxPoint x="-1" y="3" as="offset" />
          </mxGeometry>
        </mxCell>
        <mxCell id="G0EZGJF396JuAqTIfjui-121" value="" style="endArrow=none;html=1;rounded=0;" edge="1" parent="G0EZGJF396JuAqTIfjui-124">
          <mxGeometry width="50" height="50" relative="1" as="geometry">
            <mxPoint x="15" y="140" as="sourcePoint" />
            <mxPoint x="15" y="110" as="targetPoint" />
          </mxGeometry>
        </mxCell>
        <mxCell id="G0EZGJF396JuAqTIfjui-123" value="" style="endArrow=none;html=1;rounded=0;exitX=0.154;exitY=0.003;exitDx=0;exitDy=0;exitPerimeter=0;" edge="1" parent="G0EZGJF396JuAqTIfjui-124" source="G0EZGJF396JuAqTIfjui-97">
          <mxGeometry width="50" height="50" relative="1" as="geometry">
            <mxPoint x="65" y="140" as="sourcePoint" />
            <mxPoint x="65" y="110" as="targetPoint" />
            <Array as="points">
              <mxPoint x="170" y="760" />
              <mxPoint x="195" y="760" />
              <mxPoint x="195" y="410" />
              <mxPoint x="195" y="140" />
              <mxPoint x="65" y="140" />
            </Array>
          </mxGeometry>
        </mxCell>
        <mxCell id="G0EZGJF396JuAqTIfjui-128" value="D1" style="edgeLabel;html=1;align=center;verticalAlign=middle;resizable=0;points=[];" vertex="1" connectable="0" parent="G0EZGJF396JuAqTIfjui-123">
          <mxGeometry x="-0.0322" y="1" relative="1" as="geometry">
            <mxPoint x="-129" y="-307" as="offset" />
          </mxGeometry>
        </mxCell>
        <mxCell id="G0EZGJF396JuAqTIfjui-145" value="" style="group" vertex="1" connectable="0" parent="1">
          <mxGeometry x="408" y="401" width="80" height="140" as="geometry" />
        </mxCell>
        <mxCell id="G0EZGJF396JuAqTIfjui-146" value="" style="group" vertex="1" connectable="0" parent="G0EZGJF396JuAqTIfjui-145">
          <mxGeometry width="80" height="110" as="geometry" />
        </mxCell>
        <mxCell id="G0EZGJF396JuAqTIfjui-147" value="F2G" style="whiteSpace=wrap;html=1;aspect=fixed;" vertex="1" parent="G0EZGJF396JuAqTIfjui-146">
          <mxGeometry y="30" width="80" height="80" as="geometry" />
        </mxCell>
        <mxCell id="G0EZGJF396JuAqTIfjui-149" value="" style="endArrow=none;html=1;rounded=0;" edge="1" parent="G0EZGJF396JuAqTIfjui-146">
          <mxGeometry width="50" height="50" relative="1" as="geometry">
            <mxPoint x="65" y="30" as="sourcePoint" />
            <mxPoint x="65" as="targetPoint" />
          </mxGeometry>
        </mxCell>
        <mxCell id="G0EZGJF396JuAqTIfjui-150" value="D2" style="edgeLabel;html=1;align=center;verticalAlign=middle;resizable=0;points=[];" vertex="1" connectable="0" parent="G0EZGJF396JuAqTIfjui-149">
          <mxGeometry x="-0.1471" y="-1" relative="1" as="geometry">
            <mxPoint x="-1" y="3" as="offset" />
          </mxGeometry>
        </mxCell>
        <mxCell id="G0EZGJF396JuAqTIfjui-153" value="" style="endArrow=none;html=1;rounded=0;" edge="1" parent="G0EZGJF396JuAqTIfjui-145">
          <mxGeometry width="50" height="50" relative="1" as="geometry">
            <mxPoint x="205" y="610" as="sourcePoint" />
            <mxPoint x="15" y="110" as="targetPoint" />
            <Array as="points">
              <mxPoint x="205" y="170" />
              <mxPoint x="15" y="170" />
            </Array>
          </mxGeometry>
        </mxCell>
        <mxCell id="G0EZGJF396JuAqTIfjui-166" value="P1" style="edgeLabel;html=1;align=center;verticalAlign=middle;resizable=0;points=[];" vertex="1" connectable="0" parent="G0EZGJF396JuAqTIfjui-153">
          <mxGeometry x="0.3841" y="1" relative="1" as="geometry">
            <mxPoint x="-152" y="-51" as="offset" />
          </mxGeometry>
        </mxCell>
        <mxCell id="G0EZGJF396JuAqTIfjui-160" value="" style="group" vertex="1" connectable="0" parent="1">
          <mxGeometry x="243" y="331" width="180" height="240" as="geometry" />
        </mxCell>
        <mxCell id="G0EZGJF396JuAqTIfjui-131" value="" style="group" vertex="1" connectable="0" parent="G0EZGJF396JuAqTIfjui-160">
          <mxGeometry x="1" y="70" width="80" height="140" as="geometry" />
        </mxCell>
        <mxCell id="G0EZGJF396JuAqTIfjui-132" value="" style="group" vertex="1" connectable="0" parent="G0EZGJF396JuAqTIfjui-131">
          <mxGeometry width="80" height="110" as="geometry" />
        </mxCell>
        <mxCell id="G0EZGJF396JuAqTIfjui-133" value="F2G" style="whiteSpace=wrap;html=1;aspect=fixed;" vertex="1" parent="G0EZGJF396JuAqTIfjui-132">
          <mxGeometry y="30" width="80" height="80" as="geometry" />
        </mxCell>
        <mxCell id="G0EZGJF396JuAqTIfjui-158" value="" style="endArrow=none;html=1;rounded=0;" edge="1" parent="G0EZGJF396JuAqTIfjui-160">
          <mxGeometry width="50" height="50" relative="1" as="geometry">
            <mxPoint x="16" y="100" as="sourcePoint" />
            <mxPoint x="140" as="targetPoint" />
            <Array as="points">
              <mxPoint x="16" y="40" />
              <mxPoint x="140" y="40" />
            </Array>
          </mxGeometry>
        </mxCell>
        <mxCell id="G0EZGJF396JuAqTIfjui-205" value="" style="endArrow=none;html=1;rounded=0;entryX=0.75;entryY=1;entryDx=0;entryDy=0;exitX=0.25;exitY=0;exitDx=0;exitDy=0;" edge="1" parent="G0EZGJF396JuAqTIfjui-160" target="G0EZGJF396JuAqTIfjui-133">
          <mxGeometry width="50" height="50" relative="1" as="geometry">
            <mxPoint x="194" y="303" as="sourcePoint" />
            <mxPoint x="62" y="180" as="targetPoint" />
            <Array as="points">
              <mxPoint x="194" y="280" />
              <mxPoint x="160" y="280" />
              <mxPoint x="160" y="240" />
              <mxPoint x="61" y="240" />
            </Array>
          </mxGeometry>
        </mxCell>
        <mxCell id="G0EZGJF396JuAqTIfjui-211" value="D3" style="edgeLabel;html=1;align=center;verticalAlign=middle;resizable=0;points=[];" vertex="1" connectable="0" parent="G0EZGJF396JuAqTIfjui-205">
          <mxGeometry x="0.915" relative="1" as="geometry">
            <mxPoint x="1" as="offset" />
          </mxGeometry>
        </mxCell>
        <mxCell id="G0EZGJF396JuAqTIfjui-334" value="D3" style="edgeLabel;html=1;align=center;verticalAlign=middle;resizable=0;points=[];" vertex="1" connectable="0" parent="G0EZGJF396JuAqTIfjui-205">
          <mxGeometry x="-0.9205" y="-1" relative="1" as="geometry">
            <mxPoint as="offset" />
          </mxGeometry>
        </mxCell>
        <mxCell id="G0EZGJF396JuAqTIfjui-247" value="" style="endArrow=none;html=1;rounded=0;exitX=0.5;exitY=0;exitDx=0;exitDy=0;" edge="1" parent="G0EZGJF396JuAqTIfjui-160" source="G0EZGJF396JuAqTIfjui-229">
          <mxGeometry width="50" height="50" relative="1" as="geometry">
            <mxPoint x="58" y="490" as="sourcePoint" />
            <mxPoint x="18" y="-130" as="targetPoint" />
            <Array as="points">
              <mxPoint x="60" y="450" />
              <mxPoint x="-22" y="450" />
              <mxPoint x="-22" y="270" />
              <mxPoint x="-22" y="40" />
              <mxPoint x="-22" y="-90" />
              <mxPoint x="18" y="-90" />
            </Array>
          </mxGeometry>
        </mxCell>
        <mxCell id="G0EZGJF396JuAqTIfjui-350" value="D7" style="edgeLabel;html=1;align=center;verticalAlign=middle;resizable=0;points=[];" vertex="1" connectable="0" parent="G0EZGJF396JuAqTIfjui-247">
          <mxGeometry x="-0.9757" relative="1" as="geometry">
            <mxPoint as="offset" />
          </mxGeometry>
        </mxCell>
        <mxCell id="G0EZGJF396JuAqTIfjui-162" value="" style="endArrow=none;html=1;rounded=0;" edge="1" parent="1">
          <mxGeometry width="50" height="50" relative="1" as="geometry">
            <mxPoint x="423" y="431" as="sourcePoint" />
            <mxPoint x="383" y="371" as="targetPoint" />
            <Array as="points">
              <mxPoint x="423" y="371" />
            </Array>
          </mxGeometry>
        </mxCell>
        <mxCell id="G0EZGJF396JuAqTIfjui-185" value="" style="group" vertex="1" connectable="0" parent="1">
          <mxGeometry x="265" y="604" width="80" height="140" as="geometry" />
        </mxCell>
        <mxCell id="G0EZGJF396JuAqTIfjui-180" value="FG" style="whiteSpace=wrap;html=1;aspect=fixed;" vertex="1" parent="G0EZGJF396JuAqTIfjui-185">
          <mxGeometry y="30" width="80" height="80" as="geometry" />
        </mxCell>
        <mxCell id="G0EZGJF396JuAqTIfjui-190" value="" style="group" vertex="1" connectable="0" parent="1">
          <mxGeometry x="416" y="604" width="80" height="140" as="geometry" />
        </mxCell>
        <mxCell id="G0EZGJF396JuAqTIfjui-191" value="FG" style="whiteSpace=wrap;html=1;aspect=fixed;" vertex="1" parent="G0EZGJF396JuAqTIfjui-190">
          <mxGeometry y="30" width="80" height="80" as="geometry" />
        </mxCell>
        <mxCell id="G0EZGJF396JuAqTIfjui-194" value="" style="endArrow=none;html=1;rounded=0;" edge="1" parent="G0EZGJF396JuAqTIfjui-190">
          <mxGeometry width="50" height="50" relative="1" as="geometry">
            <mxPoint x="50" y="407" as="sourcePoint" />
            <mxPoint x="63" y="110" as="targetPoint" />
            <Array as="points">
              <mxPoint x="50" y="367" />
              <mxPoint x="70" y="367" />
              <mxPoint x="100" y="367" />
              <mxPoint x="100" y="347" />
              <mxPoint x="100" y="147" />
              <mxPoint x="63" y="147" />
            </Array>
          </mxGeometry>
        </mxCell>
        <mxCell id="G0EZGJF396JuAqTIfjui-209" value="D2" style="edgeLabel;html=1;align=center;verticalAlign=middle;resizable=0;points=[];" vertex="1" connectable="0" parent="G0EZGJF396JuAqTIfjui-194">
          <mxGeometry x="0.448" relative="1" as="geometry">
            <mxPoint as="offset" />
          </mxGeometry>
        </mxCell>
        <mxCell id="G0EZGJF396JuAqTIfjui-199" value="" style="endArrow=none;html=1;rounded=0;entryX=0.5;entryY=1;entryDx=0;entryDy=0;exitX=0.25;exitY=0;exitDx=0;exitDy=0;" edge="1" parent="1" source="G0EZGJF396JuAqTIfjui-180" target="G0EZGJF396JuAqTIfjui-133">
          <mxGeometry width="50" height="50" relative="1" as="geometry">
            <mxPoint x="263" y="581" as="sourcePoint" />
            <mxPoint x="313" y="531" as="targetPoint" />
          </mxGeometry>
        </mxCell>
        <mxCell id="G0EZGJF396JuAqTIfjui-210" value="D6" style="edgeLabel;html=1;align=center;verticalAlign=middle;resizable=0;points=[];" vertex="1" connectable="0" parent="G0EZGJF396JuAqTIfjui-199">
          <mxGeometry x="0.784" y="-1" relative="1" as="geometry">
            <mxPoint x="-1" y="-3" as="offset" />
          </mxGeometry>
        </mxCell>
        <mxCell id="G0EZGJF396JuAqTIfjui-336" value="D6" style="edgeLabel;html=1;align=center;verticalAlign=middle;resizable=0;points=[];" vertex="1" connectable="0" parent="G0EZGJF396JuAqTIfjui-199">
          <mxGeometry x="-0.8049" relative="1" as="geometry">
            <mxPoint as="offset" />
          </mxGeometry>
        </mxCell>
        <mxCell id="G0EZGJF396JuAqTIfjui-202" value="" style="endArrow=none;html=1;rounded=0;entryX=0.5;entryY=1;entryDx=0;entryDy=0;exitX=0.75;exitY=0;exitDx=0;exitDy=0;" edge="1" parent="1" source="G0EZGJF396JuAqTIfjui-180" target="G0EZGJF396JuAqTIfjui-147">
          <mxGeometry width="50" height="50" relative="1" as="geometry">
            <mxPoint x="403" y="591" as="sourcePoint" />
            <mxPoint x="453" y="521" as="targetPoint" />
            <Array as="points">
              <mxPoint x="325" y="591" />
              <mxPoint x="448" y="591" />
            </Array>
          </mxGeometry>
        </mxCell>
        <mxCell id="G0EZGJF396JuAqTIfjui-203" value="D5" style="edgeLabel;html=1;align=center;verticalAlign=middle;resizable=0;points=[];" vertex="1" connectable="0" parent="G0EZGJF396JuAqTIfjui-202">
          <mxGeometry x="0.8628" y="-1" relative="1" as="geometry">
            <mxPoint x="-1" y="-7" as="offset" />
          </mxGeometry>
        </mxCell>
        <mxCell id="G0EZGJF396JuAqTIfjui-335" value="D5" style="edgeLabel;html=1;align=center;verticalAlign=middle;resizable=0;points=[];" vertex="1" connectable="0" parent="G0EZGJF396JuAqTIfjui-202">
          <mxGeometry x="-0.863" y="-1" relative="1" as="geometry">
            <mxPoint y="4" as="offset" />
          </mxGeometry>
        </mxCell>
        <mxCell id="G0EZGJF396JuAqTIfjui-207" value="" style="endArrow=none;html=1;rounded=0;entryX=0.798;entryY=0.995;entryDx=0;entryDy=0;entryPerimeter=0;exitX=0.694;exitY=0.017;exitDx=0;exitDy=0;exitPerimeter=0;" edge="1" parent="1" source="G0EZGJF396JuAqTIfjui-191" target="G0EZGJF396JuAqTIfjui-147">
          <mxGeometry width="50" height="50" relative="1" as="geometry">
            <mxPoint x="472" y="631" as="sourcePoint" />
            <mxPoint x="473" y="511" as="targetPoint" />
          </mxGeometry>
        </mxCell>
        <mxCell id="G0EZGJF396JuAqTIfjui-208" value="D2" style="edgeLabel;html=1;align=center;verticalAlign=middle;resizable=0;points=[];" vertex="1" connectable="0" parent="G0EZGJF396JuAqTIfjui-207">
          <mxGeometry x="0.8064" y="-1" relative="1" as="geometry">
            <mxPoint y="-2" as="offset" />
          </mxGeometry>
        </mxCell>
        <mxCell id="G0EZGJF396JuAqTIfjui-337" value="D2" style="edgeLabel;html=1;align=center;verticalAlign=middle;resizable=0;points=[];" vertex="1" connectable="0" parent="G0EZGJF396JuAqTIfjui-207">
          <mxGeometry x="-0.7372" y="-1" relative="1" as="geometry">
            <mxPoint y="2" as="offset" />
          </mxGeometry>
        </mxCell>
        <mxCell id="G0EZGJF396JuAqTIfjui-213" value="" style="group" vertex="1" connectable="0" parent="1">
          <mxGeometry x="416" y="791" width="80" height="140" as="geometry" />
        </mxCell>
        <mxCell id="G0EZGJF396JuAqTIfjui-214" value="" style="group" vertex="1" connectable="0" parent="G0EZGJF396JuAqTIfjui-213">
          <mxGeometry width="80" height="110" as="geometry" />
        </mxCell>
        <mxCell id="G0EZGJF396JuAqTIfjui-215" value="F2G" style="whiteSpace=wrap;html=1;aspect=fixed;" vertex="1" parent="G0EZGJF396JuAqTIfjui-214">
          <mxGeometry y="30" width="80" height="80" as="geometry" />
        </mxCell>
        <mxCell id="G0EZGJF396JuAqTIfjui-248" value="" style="endArrow=none;html=1;rounded=0;exitX=0.75;exitY=0;exitDx=0;exitDy=0;entryX=0.5;entryY=0;entryDx=0;entryDy=0;" edge="1" parent="G0EZGJF396JuAqTIfjui-214">
          <mxGeometry width="50" height="50" relative="1" as="geometry">
            <mxPoint x="-94.18" y="30" as="sourcePoint" />
            <mxPoint x="38" y="30" as="targetPoint" />
            <Array as="points">
              <mxPoint x="-94.18" />
              <mxPoint x="15.819999999999993" />
              <mxPoint x="38" />
            </Array>
          </mxGeometry>
        </mxCell>
        <mxCell id="G0EZGJF396JuAqTIfjui-338" value="D8" style="edgeLabel;html=1;align=center;verticalAlign=middle;resizable=0;points=[];" vertex="1" connectable="0" parent="G0EZGJF396JuAqTIfjui-248">
          <mxGeometry x="0.8977" relative="1" as="geometry">
            <mxPoint as="offset" />
          </mxGeometry>
        </mxCell>
        <mxCell id="G0EZGJF396JuAqTIfjui-339" value="D8" style="edgeLabel;html=1;align=center;verticalAlign=middle;resizable=0;points=[];" vertex="1" connectable="0" parent="G0EZGJF396JuAqTIfjui-248">
          <mxGeometry x="-0.9048" relative="1" as="geometry">
            <mxPoint as="offset" />
          </mxGeometry>
        </mxCell>
        <mxCell id="G0EZGJF396JuAqTIfjui-227" value="" style="group" vertex="1" connectable="0" parent="1">
          <mxGeometry x="263" y="791" width="80" height="140" as="geometry" />
        </mxCell>
        <mxCell id="G0EZGJF396JuAqTIfjui-228" value="" style="group" vertex="1" connectable="0" parent="G0EZGJF396JuAqTIfjui-227">
          <mxGeometry width="80" height="110" as="geometry" />
        </mxCell>
        <mxCell id="G0EZGJF396JuAqTIfjui-229" value="F2G" style="whiteSpace=wrap;html=1;aspect=fixed;" vertex="1" parent="G0EZGJF396JuAqTIfjui-228">
          <mxGeometry y="30" width="80" height="80" as="geometry" />
        </mxCell>
        <mxCell id="G0EZGJF396JuAqTIfjui-236" value="" style="endArrow=none;html=1;rounded=0;" edge="1" parent="G0EZGJF396JuAqTIfjui-227">
          <mxGeometry width="50" height="50" relative="1" as="geometry">
            <mxPoint x="90" y="220" as="sourcePoint" />
            <mxPoint x="15" y="110" as="targetPoint" />
            <Array as="points">
              <mxPoint x="90" y="170" />
              <mxPoint x="15" y="170" />
              <mxPoint x="15" y="130" />
            </Array>
          </mxGeometry>
        </mxCell>
        <mxCell id="G0EZGJF396JuAqTIfjui-251" value="P8" style="edgeLabel;html=1;align=center;verticalAlign=middle;resizable=0;points=[];" vertex="1" connectable="0" parent="G0EZGJF396JuAqTIfjui-236">
          <mxGeometry x="-0.0966" y="1" relative="1" as="geometry">
            <mxPoint x="-42" y="-51" as="offset" />
          </mxGeometry>
        </mxCell>
        <mxCell id="G0EZGJF396JuAqTIfjui-242" value="" style="endArrow=none;html=1;rounded=0;" edge="1" parent="1">
          <mxGeometry width="50" height="50" relative="1" as="geometry">
            <mxPoint x="473" y="821" as="sourcePoint" />
            <mxPoint x="408" y="301" as="targetPoint" />
            <Array as="points">
              <mxPoint x="473" y="771" />
              <mxPoint x="538" y="771" />
              <mxPoint x="538" y="351" />
              <mxPoint x="408" y="351" />
            </Array>
          </mxGeometry>
        </mxCell>
        <mxCell id="G0EZGJF396JuAqTIfjui-343" value="D4" style="edgeLabel;html=1;align=center;verticalAlign=middle;resizable=0;points=[];" vertex="1" connectable="0" parent="G0EZGJF396JuAqTIfjui-242">
          <mxGeometry x="0.9836" relative="1" as="geometry">
            <mxPoint y="4" as="offset" />
          </mxGeometry>
        </mxCell>
        <mxCell id="G0EZGJF396JuAqTIfjui-344" value="D4" style="edgeLabel;html=1;align=center;verticalAlign=middle;resizable=0;points=[];" vertex="1" connectable="0" parent="G0EZGJF396JuAqTIfjui-242">
          <mxGeometry x="-0.9672" y="1" relative="1" as="geometry">
            <mxPoint y="2" as="offset" />
          </mxGeometry>
        </mxCell>
        <mxCell id="G0EZGJF396JuAqTIfjui-244" value="" style="endArrow=none;html=1;rounded=0;entryX=0.224;entryY=1.002;entryDx=0;entryDy=0;exitX=0.25;exitY=0;exitDx=0;exitDy=0;entryPerimeter=0;" edge="1" parent="1" source="G0EZGJF396JuAqTIfjui-229" target="G0EZGJF396JuAqTIfjui-180">
          <mxGeometry width="50" height="50" relative="1" as="geometry">
            <mxPoint x="253" y="821" as="sourcePoint" />
            <mxPoint x="303" y="721" as="targetPoint" />
            <Array as="points" />
          </mxGeometry>
        </mxCell>
        <mxCell id="G0EZGJF396JuAqTIfjui-301" value="" style="shape=table;startSize=0;container=1;collapsible=0;childLayout=tableLayout;" vertex="1" parent="1">
          <mxGeometry x="173" y="101" width="480" height="40" as="geometry" />
        </mxCell>
        <mxCell id="G0EZGJF396JuAqTIfjui-302" value="" style="shape=tableRow;horizontal=0;startSize=0;swimlaneHead=0;swimlaneBody=0;strokeColor=inherit;top=0;left=0;bottom=0;right=0;collapsible=0;dropTarget=0;fillColor=none;points=[[0,0.5],[1,0.5]];portConstraint=eastwest;" vertex="1" parent="G0EZGJF396JuAqTIfjui-301">
          <mxGeometry width="480" height="40" as="geometry" />
        </mxCell>
        <mxCell id="G0EZGJF396JuAqTIfjui-303" value="D8" style="shape=partialRectangle;html=1;whiteSpace=wrap;connectable=0;strokeColor=inherit;overflow=hidden;fillColor=none;top=0;left=0;bottom=0;right=0;pointerEvents=1;" vertex="1" parent="G0EZGJF396JuAqTIfjui-302">
          <mxGeometry width="60" height="40" as="geometry">
            <mxRectangle width="60" height="40" as="alternateBounds" />
          </mxGeometry>
        </mxCell>
        <mxCell id="G0EZGJF396JuAqTIfjui-304" value="D7" style="shape=partialRectangle;html=1;whiteSpace=wrap;connectable=0;strokeColor=inherit;overflow=hidden;fillColor=none;top=0;left=0;bottom=0;right=0;pointerEvents=1;" vertex="1" parent="G0EZGJF396JuAqTIfjui-302">
          <mxGeometry x="60" width="60" height="40" as="geometry">
            <mxRectangle width="60" height="40" as="alternateBounds" />
          </mxGeometry>
        </mxCell>
        <mxCell id="G0EZGJF396JuAqTIfjui-305" value="D6" style="shape=partialRectangle;html=1;whiteSpace=wrap;connectable=0;strokeColor=inherit;overflow=hidden;fillColor=none;top=0;left=0;bottom=0;right=0;pointerEvents=1;" vertex="1" parent="G0EZGJF396JuAqTIfjui-302">
          <mxGeometry x="120" width="60" height="40" as="geometry">
            <mxRectangle width="60" height="40" as="alternateBounds" />
          </mxGeometry>
        </mxCell>
        <mxCell id="G0EZGJF396JuAqTIfjui-306" value="D5" style="shape=partialRectangle;html=1;whiteSpace=wrap;connectable=0;strokeColor=inherit;overflow=hidden;fillColor=none;top=0;left=0;bottom=0;right=0;pointerEvents=1;" vertex="1" parent="G0EZGJF396JuAqTIfjui-302">
          <mxGeometry x="180" width="60" height="40" as="geometry">
            <mxRectangle width="60" height="40" as="alternateBounds" />
          </mxGeometry>
        </mxCell>
        <mxCell id="G0EZGJF396JuAqTIfjui-307" value="D4" style="shape=partialRectangle;html=1;whiteSpace=wrap;connectable=0;strokeColor=inherit;overflow=hidden;fillColor=none;top=0;left=0;bottom=0;right=0;pointerEvents=1;" vertex="1" parent="G0EZGJF396JuAqTIfjui-302">
          <mxGeometry x="240" width="60" height="40" as="geometry">
            <mxRectangle width="60" height="40" as="alternateBounds" />
          </mxGeometry>
        </mxCell>
        <mxCell id="G0EZGJF396JuAqTIfjui-308" value="D3" style="shape=partialRectangle;html=1;whiteSpace=wrap;connectable=0;strokeColor=inherit;overflow=hidden;fillColor=none;top=0;left=0;bottom=0;right=0;pointerEvents=1;" vertex="1" parent="G0EZGJF396JuAqTIfjui-302">
          <mxGeometry x="300" width="60" height="40" as="geometry">
            <mxRectangle width="60" height="40" as="alternateBounds" />
          </mxGeometry>
        </mxCell>
        <mxCell id="G0EZGJF396JuAqTIfjui-309" value="D2" style="shape=partialRectangle;html=1;whiteSpace=wrap;connectable=0;strokeColor=inherit;overflow=hidden;fillColor=none;top=0;left=0;bottom=0;right=0;pointerEvents=1;" vertex="1" parent="G0EZGJF396JuAqTIfjui-302">
          <mxGeometry x="360" width="60" height="40" as="geometry">
            <mxRectangle width="60" height="40" as="alternateBounds" />
          </mxGeometry>
        </mxCell>
        <mxCell id="G0EZGJF396JuAqTIfjui-310" value="D1" style="shape=partialRectangle;html=1;whiteSpace=wrap;connectable=0;strokeColor=inherit;overflow=hidden;fillColor=none;top=0;left=0;bottom=0;right=0;pointerEvents=1;" vertex="1" parent="G0EZGJF396JuAqTIfjui-302">
          <mxGeometry x="420" width="60" height="40" as="geometry">
            <mxRectangle width="60" height="40" as="alternateBounds" />
          </mxGeometry>
        </mxCell>
        <mxCell id="G0EZGJF396JuAqTIfjui-313" value="" style="endArrow=none;html=1;rounded=0;" edge="1" parent="1">
          <mxGeometry width="50" height="50" relative="1" as="geometry">
            <mxPoint x="433" y="191" as="sourcePoint" />
            <mxPoint x="623" y="141" as="targetPoint" />
            <Array as="points">
              <mxPoint x="433" y="181" />
              <mxPoint x="623" y="181" />
            </Array>
          </mxGeometry>
        </mxCell>
        <mxCell id="G0EZGJF396JuAqTIfjui-314" value="" style="endArrow=none;html=1;rounded=0;entryX=0.813;entryY=1.011;entryDx=0;entryDy=0;entryPerimeter=0;" edge="1" parent="1" target="G0EZGJF396JuAqTIfjui-302">
          <mxGeometry width="50" height="50" relative="1" as="geometry">
            <mxPoint x="473" y="401" as="sourcePoint" />
            <mxPoint x="453" y="261" as="targetPoint" />
            <Array as="points">
              <mxPoint x="473" y="261" />
              <mxPoint x="563" y="261" />
            </Array>
          </mxGeometry>
        </mxCell>
        <mxCell id="G0EZGJF396JuAqTIfjui-320" value="" style="endArrow=none;html=1;rounded=0;exitX=0.75;exitY=0;exitDx=0;exitDy=0;" edge="1" parent="1" source="G0EZGJF396JuAqTIfjui-133">
          <mxGeometry width="50" height="50" relative="1" as="geometry">
            <mxPoint x="453" y="191" as="sourcePoint" />
            <mxPoint x="503" y="141" as="targetPoint" />
            <Array as="points">
              <mxPoint x="303" y="171" />
              <mxPoint x="503" y="171" />
            </Array>
          </mxGeometry>
        </mxCell>
        <mxCell id="G0EZGJF396JuAqTIfjui-321" value="D3" style="edgeLabel;html=1;align=center;verticalAlign=middle;resizable=0;points=[];" vertex="1" connectable="0" parent="G0EZGJF396JuAqTIfjui-320">
          <mxGeometry x="-0.9604" relative="1" as="geometry">
            <mxPoint as="offset" />
          </mxGeometry>
        </mxCell>
        <mxCell id="G0EZGJF396JuAqTIfjui-322" value="" style="endArrow=none;html=1;rounded=0;entryX=0.556;entryY=0.961;entryDx=0;entryDy=0;entryPerimeter=0;exitX=0.5;exitY=0;exitDx=0;exitDy=0;" edge="1" parent="1" source="G0EZGJF396JuAqTIfjui-112">
          <mxGeometry width="50" height="50" relative="1" as="geometry">
            <mxPoint x="423" y="191" as="sourcePoint" />
            <mxPoint x="441.44" y="141" as="targetPoint" />
            <Array as="points">
              <mxPoint x="408" y="161" />
              <mxPoint x="441" y="161" />
            </Array>
          </mxGeometry>
        </mxCell>
        <mxCell id="G0EZGJF396JuAqTIfjui-340" value="D4" style="edgeLabel;html=1;align=center;verticalAlign=middle;resizable=0;points=[];" vertex="1" connectable="0" parent="G0EZGJF396JuAqTIfjui-322">
          <mxGeometry x="-0.8032" y="2" relative="1" as="geometry">
            <mxPoint as="offset" />
          </mxGeometry>
        </mxCell>
        <mxCell id="G0EZGJF396JuAqTIfjui-324" value="" style="endArrow=none;html=1;rounded=0;entryX=0.439;entryY=1.025;entryDx=0;entryDy=0;entryPerimeter=0;exitX=0.5;exitY=0;exitDx=0;exitDy=0;" edge="1" parent="1">
          <mxGeometry width="50" height="50" relative="1" as="geometry">
            <mxPoint x="448" y="430" as="sourcePoint" />
            <mxPoint x="383.7199999999999" y="141" as="targetPoint" />
            <Array as="points">
              <mxPoint x="448" y="411" />
              <mxPoint x="353" y="411" />
              <mxPoint x="353" y="331" />
              <mxPoint x="353" y="281" />
              <mxPoint x="353" y="191" />
              <mxPoint x="353" y="161" />
              <mxPoint x="373" y="161" />
              <mxPoint x="383" y="161" />
            </Array>
          </mxGeometry>
        </mxCell>
        <mxCell id="G0EZGJF396JuAqTIfjui-326" value="D5" style="edgeLabel;html=1;align=center;verticalAlign=middle;resizable=0;points=[];" vertex="1" connectable="0" parent="G0EZGJF396JuAqTIfjui-324">
          <mxGeometry x="-0.9485" y="1" relative="1" as="geometry">
            <mxPoint x="-1" y="2" as="offset" />
          </mxGeometry>
        </mxCell>
        <mxCell id="G0EZGJF396JuAqTIfjui-327" value="" style="endArrow=none;html=1;rounded=0;exitX=0.5;exitY=0;exitDx=0;exitDy=0;" edge="1" parent="1" source="G0EZGJF396JuAqTIfjui-133">
          <mxGeometry width="50" height="50" relative="1" as="geometry">
            <mxPoint x="283" y="341" as="sourcePoint" />
            <mxPoint x="322" y="141" as="targetPoint" />
            <Array as="points">
              <mxPoint x="283" y="161" />
              <mxPoint x="322" y="161" />
            </Array>
          </mxGeometry>
        </mxCell>
        <mxCell id="G0EZGJF396JuAqTIfjui-329" value="D6" style="edgeLabel;html=1;align=center;verticalAlign=middle;resizable=0;points=[];" vertex="1" connectable="0" parent="G0EZGJF396JuAqTIfjui-327">
          <mxGeometry x="-0.9432" y="1" relative="1" as="geometry">
            <mxPoint as="offset" />
          </mxGeometry>
        </mxCell>
        <mxCell id="G0EZGJF396JuAqTIfjui-328" value="" style="endArrow=none;html=1;rounded=0;exitX=0.188;exitY=0;exitDx=0;exitDy=0;exitPerimeter=0;" edge="1" parent="1" source="G0EZGJF396JuAqTIfjui-112">
          <mxGeometry width="50" height="50" relative="1" as="geometry">
            <mxPoint x="243" y="221" as="sourcePoint" />
            <mxPoint x="261" y="141" as="targetPoint" />
            <Array as="points">
              <mxPoint x="383" y="201" />
              <mxPoint x="261" y="201" />
            </Array>
          </mxGeometry>
        </mxCell>
        <mxCell id="G0EZGJF396JuAqTIfjui-331" value="D7" style="edgeLabel;html=1;align=center;verticalAlign=middle;resizable=0;points=[];" vertex="1" connectable="0" parent="G0EZGJF396JuAqTIfjui-328">
          <mxGeometry x="-0.8633" y="-1" relative="1" as="geometry">
            <mxPoint x="-1" y="4" as="offset" />
          </mxGeometry>
        </mxCell>
        <mxCell id="G0EZGJF396JuAqTIfjui-332" value="" style="endArrow=none;html=1;rounded=0;entryX=0.062;entryY=1.037;entryDx=0;entryDy=0;entryPerimeter=0;" edge="1" parent="1">
          <mxGeometry width="50" height="50" relative="1" as="geometry">
            <mxPoint x="373" y="789.52" as="sourcePoint" />
            <mxPoint x="202.76" y="141.00000000000003" as="targetPoint" />
            <Array as="points">
              <mxPoint x="373" y="769.52" />
              <mxPoint x="293" y="769.52" />
              <mxPoint x="203" y="769.52" />
              <mxPoint x="203" y="469.52" />
            </Array>
          </mxGeometry>
        </mxCell>
        <mxCell id="G0EZGJF396JuAqTIfjui-333" value="D8" style="edgeLabel;html=1;align=center;verticalAlign=middle;resizable=0;points=[];" vertex="1" connectable="0" parent="G0EZGJF396JuAqTIfjui-332">
          <mxGeometry x="-0.9742" y="1" relative="1" as="geometry">
            <mxPoint as="offset" />
          </mxGeometry>
        </mxCell>
        <mxCell id="G0EZGJF396JuAqTIfjui-345" value="" style="endArrow=none;html=1;rounded=0;entryX=0.25;entryY=1;entryDx=0;entryDy=0;exitX=0.25;exitY=0;exitDx=0;exitDy=0;" edge="1" parent="1" source="G0EZGJF396JuAqTIfjui-215" target="G0EZGJF396JuAqTIfjui-191">
          <mxGeometry width="50" height="50" relative="1" as="geometry">
            <mxPoint x="373" y="861" as="sourcePoint" />
            <mxPoint x="423" y="811" as="targetPoint" />
            <Array as="points" />
          </mxGeometry>
        </mxCell>
        <mxCell id="G0EZGJF396JuAqTIfjui-352" value="" style="endArrow=none;html=1;rounded=0;entryX=0.5;entryY=1;entryDx=0;entryDy=0;exitX=0.75;exitY=1;exitDx=0;exitDy=0;" edge="1" parent="1" source="G0EZGJF396JuAqTIfjui-229" target="G0EZGJF396JuAqTIfjui-215">
          <mxGeometry width="50" height="50" relative="1" as="geometry">
            <mxPoint x="323" y="901" as="sourcePoint" />
            <mxPoint x="443" y="951" as="targetPoint" />
            <Array as="points">
              <mxPoint x="323" y="941" />
              <mxPoint x="456" y="941" />
            </Array>
          </mxGeometry>
        </mxCell>
        <mxCell id="G0EZGJF396JuAqTIfjui-353" value="D8" style="edgeLabel;html=1;align=center;verticalAlign=middle;resizable=0;points=[];" vertex="1" connectable="0" parent="G0EZGJF396JuAqTIfjui-352">
          <mxGeometry x="-0.9271" y="1" relative="1" as="geometry">
            <mxPoint y="2" as="offset" />
          </mxGeometry>
        </mxCell>
        <mxCell id="G0EZGJF396JuAqTIfjui-354" value="D8" style="edgeLabel;html=1;align=center;verticalAlign=middle;resizable=0;points=[];" vertex="1" connectable="0" parent="G0EZGJF396JuAqTIfjui-352">
          <mxGeometry x="0.9325" y="-1" relative="1" as="geometry">
            <mxPoint y="3" as="offset" />
          </mxGeometry>
        </mxCell>
        <mxCell id="G0EZGJF396JuAqTIfjui-358" value="" style="endArrow=none;html=1;rounded=0;" edge="1" parent="1">
          <mxGeometry width="50" height="50" relative="1" as="geometry">
            <mxPoint x="195" y="1011" as="sourcePoint" />
            <mxPoint x="383" y="941" as="targetPoint" />
            <Array as="points">
              <mxPoint x="195" y="951" />
              <mxPoint x="383" y="951" />
            </Array>
          </mxGeometry>
        </mxCell>
        <mxCell id="G0EZGJF396JuAqTIfjui-237" value="" style="endArrow=none;html=1;rounded=0;exitX=0.468;exitY=0.022;exitDx=0;exitDy=0;exitPerimeter=0;" edge="1" parent="1" source="G0EZGJF396JuAqTIfjui-43">
          <mxGeometry width="50" height="50" relative="1" as="geometry">
            <mxPoint x="230.99729729729728" y="981.0000000000001" as="sourcePoint" />
            <mxPoint x="301" y="901" as="targetPoint" />
            <Array as="points">
              <mxPoint x="231" y="971" />
              <mxPoint x="231" y="931" />
              <mxPoint x="301" y="931" />
            </Array>
          </mxGeometry>
        </mxCell>
        <mxCell id="G0EZGJF396JuAqTIfjui-238" value="D7" style="edgeLabel;html=1;align=center;verticalAlign=middle;resizable=0;points=[];" vertex="1" connectable="0" parent="G0EZGJF396JuAqTIfjui-237">
          <mxGeometry x="-0.0782" y="1" relative="1" as="geometry">
            <mxPoint x="68" y="-19" as="offset" />
          </mxGeometry>
        </mxCell>
        <mxCell id="G0EZGJF396JuAqTIfjui-361" value="" style="endArrow=none;html=1;rounded=0;entryX=0.75;entryY=1;entryDx=0;entryDy=0;" edge="1" parent="1" target="G0EZGJF396JuAqTIfjui-215">
          <mxGeometry width="50" height="50" relative="1" as="geometry">
            <mxPoint x="391" y="1011" as="sourcePoint" />
            <mxPoint x="473" y="901" as="targetPoint" />
            <Array as="points">
              <mxPoint x="391" y="951" />
              <mxPoint x="476" y="951" />
            </Array>
          </mxGeometry>
        </mxCell>
        <mxCell id="G0EZGJF396JuAqTIfjui-362" value="D4" style="edgeLabel;html=1;align=center;verticalAlign=middle;resizable=0;points=[];" vertex="1" connectable="0" parent="G0EZGJF396JuAqTIfjui-361">
          <mxGeometry x="0.906" y="1" relative="1" as="geometry">
            <mxPoint x="1" y="2" as="offset" />
          </mxGeometry>
        </mxCell>
        <mxCell id="G0EZGJF396JuAqTIfjui-222" value="" style="endArrow=none;html=1;rounded=0;entryX=0.213;entryY=1;entryDx=0;entryDy=0;entryPerimeter=0;exitX=0.807;exitY=-0.005;exitDx=0;exitDy=0;exitPerimeter=0;" edge="1" parent="1" source="G0EZGJF396JuAqTIfjui-83" target="G0EZGJF396JuAqTIfjui-215">
          <mxGeometry width="50" height="50" relative="1" as="geometry">
            <mxPoint x="499" y="981" as="sourcePoint" />
            <mxPoint x="431.01" y="901" as="targetPoint" />
            <Array as="points">
              <mxPoint x="499" y="961" />
              <mxPoint x="433" y="961" />
            </Array>
          </mxGeometry>
        </mxCell>
        <mxCell id="G0EZGJF396JuAqTIfjui-252" value="P4" style="edgeLabel;html=1;align=center;verticalAlign=middle;resizable=0;points=[];" vertex="1" connectable="0" parent="G0EZGJF396JuAqTIfjui-222">
          <mxGeometry x="0.2381" relative="1" as="geometry">
            <mxPoint x="-8" y="-50" as="offset" />
          </mxGeometry>
        </mxCell>
        <mxCell id="G0EZGJF396JuAqTIfjui-184" value="" style="endArrow=none;html=1;rounded=0;" edge="1" parent="1">
          <mxGeometry width="50" height="50" relative="1" as="geometry">
            <mxPoint x="313" y="1011" as="sourcePoint" />
            <mxPoint x="319.36" y="713.34" as="targetPoint" />
            <Array as="points">
              <mxPoint x="313" y="981" />
              <mxPoint x="363" y="981" />
              <mxPoint x="363" y="740" />
              <mxPoint x="319.36" y="740.34" />
            </Array>
          </mxGeometry>
        </mxCell>
        <mxCell id="G0EZGJF396JuAqTIfjui-212" value="D5" style="edgeLabel;html=1;align=center;verticalAlign=middle;resizable=0;points=[];" vertex="1" connectable="0" parent="G0EZGJF396JuAqTIfjui-184">
          <mxGeometry x="0.3947" y="-1" relative="1" as="geometry">
            <mxPoint x="-45" y="-62" as="offset" />
          </mxGeometry>
        </mxCell>
        <mxCell id="G0EZGJF396JuAqTIfjui-365" value="" style="endArrow=none;html=1;rounded=0;" edge="1" parent="1">
          <mxGeometry width="50" height="50" relative="1" as="geometry">
            <mxPoint x="273" y="1011" as="sourcePoint" />
            <mxPoint x="284" y="571" as="targetPoint" />
            <Array as="points">
              <mxPoint x="273" y="971" />
              <mxPoint x="254" y="971" />
              <mxPoint x="254" y="891" />
              <mxPoint x="174" y="891" />
              <mxPoint x="174" y="781" />
              <mxPoint x="174" y="571" />
            </Array>
          </mxGeometry>
        </mxCell>
        <mxCell id="G0EZGJF396JuAqTIfjui-366" value="" style="endArrow=none;html=1;rounded=0;" edge="1" parent="1">
          <mxGeometry width="50" height="50" relative="1" as="geometry">
            <mxPoint x="425" y="1011" as="sourcePoint" />
            <mxPoint x="403" y="611" as="targetPoint" />
            <Array as="points">
              <mxPoint x="425" y="981" />
              <mxPoint x="403" y="981" />
              <mxPoint x="403" y="811" />
            </Array>
          </mxGeometry>
        </mxCell>
        <mxCell id="G0EZGJF396JuAqTIfjui-371" value="" style="endArrow=none;html=1;rounded=0;entryX=0.25;entryY=1;entryDx=0;entryDy=0;exitX=0.508;exitY=0.054;exitDx=0;exitDy=0;exitPerimeter=0;" edge="1" parent="1" source="G0EZGJF396JuAqTIfjui-97" target="G0EZGJF396JuAqTIfjui-133">
          <mxGeometry width="50" height="50" relative="1" as="geometry">
            <mxPoint x="243" y="831" as="sourcePoint" />
            <mxPoint x="293" y="781" as="targetPoint" />
            <Array as="points">
              <mxPoint x="583" y="541" />
              <mxPoint x="264" y="541" />
            </Array>
          </mxGeometry>
        </mxCell>
        <mxCell id="G0EZGJF396JuAqTIfjui-372" value="P2" style="edgeLabel;html=1;align=center;verticalAlign=middle;resizable=0;points=[];" vertex="1" connectable="0" parent="G0EZGJF396JuAqTIfjui-371">
          <mxGeometry x="0.9715" y="1" relative="1" as="geometry">
            <mxPoint as="offset" />
          </mxGeometry>
        </mxCell>
        <mxCell id="G0EZGJF396JuAqTIfjui-375" value="(12, 8) Hamming Code Generator" style="text;strokeColor=none;fillColor=none;html=1;fontSize=24;fontStyle=5;verticalAlign=middle;align=center;labelBackgroundColor=none;textShadow=0;" vertex="1" parent="1">
          <mxGeometry x="43" y="30" width="380" height="40" as="geometry" />
        </mxCell>
      </root>
    </mxGraphModel>
  </diagram>
</mxfile>
